<?xml version="1.0" encoding="utf-8"?>
<!-- Generator: Adobe Illustrator 21.0.2, SVG Export Plug-In . SVG Version: 6.00 Build 0)  -->
<svg version="1.1" id="Слой_1" xmlns="http://www.w3.org/2000/svg" xmlns:xlink="http://www.w3.org/1999/xlink" x="0px" y="0px"
	 viewBox="0 0 200 200" style="enable-background:new 0 0 200 200;" xml:space="preserve">
<style type="text/css">
	.st0{fill:none;stroke:#3F49C9;stroke-width:4;stroke-miterlimit:10;}
	.st1{fill:none;stroke:#3F49C9;stroke-miterlimit:10;}
</style>
<path id="gen" class="st1" d="M71.2,34.8L90.7,40c0,0,20,4.8,17.1,15.2s-1,12.4-5.7,16.2c-4.8,3.8-7.6-1-7.6-1s4.8,4.8,2.9,4.8
	c-1.9,0-3.8,0-3.8,0s-3.8-1.9-2.9,4.8s-1.9,10.5-1.9,10.5l5.7,2.9c0,0,3.8-5.7,5.7-6.7c1.9-1,2.9-1.9,6.7,0
	c3.8,1.9,24.8,9.5,24.8,9.5s4.8,1.9,3.8,5.7c-1,3.8-2.9,3.8-2.9,3.8l14.3,3.8c0,0,0-1,2.9-1s3.8,1,3.8,1s2.9,0,3.8,0
	c1,0,1.9,1,1.9,1l1,1.9c0,0,1.9-1.9,2.9-1c1,1,4.8,3.8,5.7,3.8s4.8,1,4.8,1v2.9l5.7-5.7c0,0,3.8-4.8,5.7-3.8c1,0.5,0.9,6.2,0.6,11.3
	c0,0.5,12.9,1.7,12.9,1.7v4c0,0-13.1-2.2-13.2-1.6c-0.2,2.2-0.3,3.7-0.3,3.7l-1,2.9h-1.9l-1.9-1v-1.9l-3.8-1.9c0,0,0,1-2.9,1
	s-3.8,0-3.8,1c0,1-2.9,1-2.9,1s-1.9,2.9-1.9,3.8s-3.8,2.9-3.8,2.9s-2.9,2.9-6.7,2.9c-3.8,0-6.7,1.9-6.7,1.9l-2.9,1l-1.9,1.9
	c0,0-1,1.9-5.7,1c-4.8-1-11.4-1.9-6.7-10.5c4.8-8.6,4.8-8.6,4.8-8.6s1-1.9,3.8-2.9c2.9-1,2.9-1.9,2.9-1.9l-11.4-1c0,0-2.9-1-3.8,1.9
	c-1,2.9-1,5.7-1,5.7s-1,1-1,3.8s-1,7.6-1,7.6h-14.3c0,0-1-7.6,0-9.5c1-1.9,0-3.8,0-3.8s0,1.9-4.8,1c-4.8-1-6.7-1-6.7-1v3.8
	c0,0,0,1.9-1,1.9s-5.7,3.8-5.7,3.8s-5.7,5.7-11.4,3.8s-6.7-2.9-6.7-2.9s-1.9-2.9-7.6-4.8c-5.7-1.9-11.4-2.9-11.4-2.9s-12.4,1-16.2,1
	c-3.8,0-19,1-25.7-8.6s-8.6-17.1-8.6-17.1S0.3,86.7,3.1,79c2.9-7.6,4.8-7.6,5.7-7.6c1,0,7.6,0,7.6,0s9.5,1.9,12.4,0
	c2.9-1.9,4.8-2.9,6.7-6.7s7.6-17.1,7.6-17.1s5.7-13.3,18.1-13.3S71.2,34.8,71.2,34.8z"/>
	
  <circle cx="" cy="" r="3" fill="red">
    <!-- Define the motion path animation -->
    <animateMotion dur="3s" repeatCount="indefinite">
      <mpath xlink:href="#gen"/>
    </animateMotion>
  </circle>
</svg>
